<?xml version="1.0" standalone="no"?>
<!DOCTYPE svg PUBLIC "-//W3C//DTD SVG 20010904//EN"
 "http://www.w3.org/TR/2001/REC-SVG-20010904/DTD/svg10.dtd">
<svg version="1.0" xmlns="http://www.w3.org/2000/svg"
 width="225.000000pt" height="225.000000pt" viewBox="0 0 225.000000 225.000000"
 preserveAspectRatio="xMidYMid meet">

<g transform="translate(0.000000,225.000000) scale(0.100000,-0.100000)"
fill="#000000" stroke="none">
<path d="M1205 1566 c-162 -41 -272 -172 -283 -333 -3 -51 -1 -73 7 -73 6 0
11 5 11 10 0 6 28 10 65 10 37 0 65 -4 65 -10 0 -5 5 -10 10 -10 6 0 9 5 8 12
-2 8 25 16 77 24 120 19 125 18 125 -11 0 -14 4 -25 8 -25 5 0 7 13 4 29 -4
28 -4 28 93 50 53 13 98 21 100 19 2 -2 8 -26 14 -53 l10 -50 -2 58 -2 58 58
23 c31 13 60 20 63 15 3 -5 8 -40 11 -79 3 -38 10 -70 14 -70 22 0 0 141 -32
206 -73 151 -265 242 -424 200z m243 -43 c29 -13 50 -28 47 -33 -3 -5 -20 -14
-39 -20 -31 -10 -35 -8 -72 27 -22 21 -48 44 -59 51 -36 23 64 2 123 -25z
m-219 -23 c19 -87 19 -86 -81 -97 l-58 -6 11 33 c13 35 88 120 106 120 6 0 16
-23 22 -50z m89 36 c29 -15 88 -73 81 -79 -9 -8 -133 -36 -140 -32 -4 3 -10
26 -14 51 -3 26 -9 53 -12 60 -7 19 49 19 85 0z m-193 -43 c-13 -21 -29 -53
-36 -70 -10 -31 -14 -33 -56 -33 l-45 0 31 39 c25 32 113 101 128 101 2 0 -8
-17 -22 -37z m429 -48 c18 -19 42 -53 55 -75 l23 -40 -44 -19 c-69 -30 -88
-34 -88 -19 0 8 -16 46 -35 86 l-34 72 32 14 c48 21 56 19 91 -19z m-105 -57
c55 -115 57 -110 -54 -137 -53 -13 -98 -22 -100 -20 -6 7 -37 171 -32 175 3 4
120 37 149 43 4 0 20 -27 37 -61z m-185 -60 c9 -46 16 -88 16 -94 0 -6 -36
-16 -82 -22 -128 -18 -118 -25 -118 72 0 57 4 87 13 93 6 4 41 13 77 19 36 6
68 12 71 13 4 0 14 -36 23 -81z m-190 38 c-3 -8 -6 -50 -7 -93 l-2 -78 -60 0
-60 0 -3 36 c-2 19 7 61 18 92 l21 57 49 0 c39 0 48 -3 44 -14z"/>
<path d="M981 1141 c-17 -11 -7 -41 13 -41 22 0 30 20 15 36 -9 8 -19 10 -28
5z"/>
<path d="M1720 1050 c0 -93 1 -100 20 -100 19 0 20 7 20 100 0 93 -1 100 -20
100 -19 0 -20 -7 -20 -100z"/>
<path d="M429 1111 c-21 -22 -29 -39 -29 -66 0 -72 86 -119 151 -84 32 17 6
39 -37 32 -43 -7 -64 10 -64 53 0 40 27 59 70 49 35 -8 51 12 25 32 -33 23
-83 16 -116 -16z"/>
<path d="M890 1095 c0 -8 -4 -15 -10 -15 -5 0 -10 -7 -10 -15 0 -8 5 -15 10
-15 6 0 10 -20 10 -44 0 -31 5 -46 16 -50 28 -11 54 -6 54 9 0 8 -7 15 -15 15
-10 0 -15 11 -15 35 0 24 5 35 15 35 8 0 15 7 15 15 0 8 -7 15 -15 15 -8 0
-15 7 -15 15 0 8 -9 15 -20 15 -11 0 -20 -7 -20 -15z"/>
<path d="M1500 1095 c0 -8 -4 -15 -10 -15 -5 0 -10 -7 -10 -15 0 -8 4 -15 9
-15 6 0 11 -21 13 -47 3 -46 4 -48 36 -51 33 -3 45 14 17 24 -9 4 -15 19 -15
40 0 24 5 34 15 34 8 0 15 7 15 15 0 8 -7 15 -15 15 -8 0 -15 7 -15 15 0 8 -9
15 -20 15 -11 0 -20 -7 -20 -15z"/>
<path d="M587 1062 c-39 -43 -5 -112 53 -112 59 0 94 76 52 113 -25 23 -85 22
-105 -1z m81 -38 c4 -29 -23 -51 -43 -34 -16 13 -20 42 -8 54 14 14 48 1 51
-20z"/>
<path d="M730 1014 c0 -57 2 -64 20 -64 16 0 20 7 20 34 0 43 9 66 25 66 16 0
25 -23 25 -66 0 -27 4 -34 20 -34 17 0 20 7 20 46 0 71 -11 83 -75 83 l-55 -1
0 -64z"/>
<path d="M970 1015 c0 -58 2 -65 20 -65 18 0 20 7 20 65 0 58 -2 65 -20 65
-18 0 -20 -7 -20 -65z"/>
<path d="M1040 1014 c0 -57 2 -64 20 -64 17 0 20 7 20 45 0 33 5 47 16 52 21
8 34 -14 34 -59 0 -31 4 -38 20 -38 17 0 20 7 20 46 0 71 -11 83 -75 83 l-55
-1 0 -64z"/>
<path d="M1206 1064 c-22 -21 -20 -77 2 -97 20 -19 68 -22 92 -7 20 13 4 25
-32 25 -17 0 -33 6 -36 14 -3 10 6 12 42 10 51 -5 59 8 30 49 -18 26 -74 30
-98 6z m72 -22 c2 -7 -7 -12 -22 -12 -27 0 -35 15 -13 23 17 7 30 3 35 -11z"/>
<path d="M1340 1014 c0 -57 2 -64 19 -64 17 0 20 8 23 47 2 36 7 49 21 51 14
3 17 -4 17 -47 0 -48 2 -51 25 -51 22 0 25 4 25 39 0 22 -4 51 -10 65 -8 23
-14 25 -65 25 l-55 -1 0 -64z"/>
<path d="M1587 1074 c-14 -14 6 -30 33 -26 18 3 30 0 30 -7 0 -6 -11 -11 -24
-11 -27 0 -56 -23 -56 -44 0 -23 24 -34 73 -34 l47 1 0 52 c0 28 -5 56 -12 63
-12 12 -80 17 -91 6z m71 -76 c-5 -15 -48 -24 -48 -10 0 14 12 22 33 22 10 0
17 -5 15 -12z"/>
<path d="M1720 845 c0 -60 3 -75 15 -75 12 0 15 15 15 75 0 60 -3 75 -15 75
-12 0 -15 -15 -15 -75z"/>
<path d="M1180 901 c0 -5 10 -11 23 -13 19 -3 22 -10 25 -60 2 -43 7 -58 17
-58 12 0 15 14 15 60 0 53 2 60 20 60 11 0 20 5 20 10 0 6 -27 10 -60 10 -33
0 -60 -4 -60 -9z"/>
<path d="M1290 820 c0 -43 3 -50 20 -50 16 0 20 7 20 35 0 24 5 35 15 35 8 0
15 6 15 13 0 9 -13 14 -35 15 l-35 1 0 -49z"/>
<path d="M1375 860 c-7 -11 -1 -13 33 -10 33 2 27 -15 -10 -25 -63 -19 -38
-68 30 -58 29 5 32 8 32 42 0 20 -5 42 -12 49 -15 15 -64 16 -73 2z m55 -59
c0 -14 -18 -23 -30 -16 -6 4 -8 11 -5 16 8 12 35 12 35 0z"/>
<path d="M1492 820 c27 -66 53 -65 79 3 18 46 18 47 -1 47 -14 0 -21 -9 -26
-35 -7 -40 -20 -38 -29 5 -4 20 -13 30 -25 30 -18 0 -18 -2 2 -50z"/>
<path d="M1612 858 c-20 -20 -15 -76 9 -88 24 -13 69 -5 69 11 0 7 -10 9 -24
5 -15 -4 -28 0 -36 9 -11 13 -7 15 29 15 33 0 41 4 41 18 0 10 -5 23 -12 30
-15 15 -61 15 -76 0z m63 -18 c4 -6 -7 -10 -25 -10 -18 0 -29 4 -25 10 3 6 15
10 25 10 10 0 22 -4 25 -10z"/>
</g>
</svg>
