<svg version="1.0" xmlns="http://www.w3.org/2000/svg"
 width="522.000000pt" height="271.000000pt" viewBox="0 0 522.000000 271.000000"
 preserveAspectRatio="xMidYMid meet">

<g transform="translate(0.000000,271.000000) scale(0.100000,-0.100000)"
fill="#000000" stroke="none">
<path d="M852 2127 c-248 -248 -452 -457 -452 -462 0 -6 218 -228 485 -495
l485 -485 342 342 343 343 -68 67 -67 68 -273 -273 -272 -272 -353 353 -352
352 320 320 320 320 173 -173 172 -172 68 68 67 67 -243 243 -242 242 -453
-453z"/>
<path d="M1105 1860 l-220 -220 225 -225 225 -225 272 272 273 273 190 -190
190 -190 -435 -435 -435 -435 -543 543 -542 542 -68 -68 -67 -67 608 -608 607
-607 570 570 570 570 -320 320 -320 320 -272 -272 -273 -273 -95 95 -95 95 90
90 90 90 48 -48 48 -47 64 65 65 65 -110 110 c-60 61 -112 110 -115 110 -3 0
-104 -99 -225 -220z"/>
<path d="M3000 1651 c-74 -24 -138 -81 -168 -150 -20 -48 -20 -174 1 -222 47
-108 160 -162 300 -145 75 10 81 15 73 69 l-7 46 -30 -11 c-44 -15 -135 -5
-167 19 -40 29 -62 80 -62 144 0 62 22 105 73 143 29 21 106 28 159 13 25 -7
28 -4 38 34 9 31 9 44 0 53 -13 13 -174 19 -210 7z"/>
<path d="M3380 1638 c-60 -32 -84 -67 -84 -126 0 -70 25 -99 130 -152 75 -38
89 -49 92 -72 6 -53 -77 -75 -166 -44 l-41 15 -11 -37 c-5 -20 -10 -42 -10
-49 0 -20 71 -38 150 -38 61 1 83 5 119 25 52 29 81 78 81 135 0 73 -45 120
-152 160 -84 31 -101 79 -37 105 24 10 42 11 81 2 66 -16 65 -16 72 16 4 15 9
34 12 43 12 43 -161 55 -236 17z"/>
<path d="M3710 1610 l0 -49 68 -3 67 -3 3 -207 2 -208 55 0 55 0 0 210 0 210
70 0 70 0 0 50 0 50 -195 0 -195 0 0 -50z"/>
<path d="M4177 1653 c-4 -3 -7 -120 -7 -260 l0 -253 60 0 60 0 0 260 0 260
-53 0 c-30 0 -57 -3 -60 -7z"/>
<path d="M4445 1626 c-33 -33 -36 -111 -5 -144 23 -25 87 -31 108 -10 21 21
13 26 -26 21 -46 -6 -66 13 -65 63 1 48 20 67 60 62 26 -3 33 -1 31 11 -2 10
-16 17 -40 19 -29 3 -43 -2 -63 -22z"/>
<path d="M4605 1625 c-20 -19 -25 -34 -25 -75 0 -64 23 -90 81 -90 54 0 75 13
89 56 15 45 0 108 -30 124 -35 19 -89 12 -115 -15z m105 -24 c22 -43 6 -106
-30 -112 -59 -11 -89 64 -47 119 15 19 65 15 77 -7z"/>
<path d="M4797 1643 c-4 -3 -7 -46 -7 -95 0 -81 2 -88 20 -88 17 0 20 7 20 41
0 33 3 40 17 37 10 -2 26 -20 36 -41 9 -20 24 -37 32 -37 20 0 19 19 -4 57
-17 27 -18 33 -5 43 21 18 18 67 -5 80 -22 11 -94 14 -104 3z m90 -39 c4 -11
-1 -22 -12 -30 -30 -22 -45 -17 -45 16 0 25 4 30 25 30 15 0 28 -7 32 -16z"/>
<path d="M4970 1555 c0 -78 3 -95 15 -95 10 0 15 11 15 35 0 31 3 35 28 35 33
0 45 8 61 37 13 26 1 67 -24 77 -9 3 -34 6 -56 6 l-39 0 0 -95z m89 41 c2 -11
-5 -26 -15 -33 -31 -22 -44 -16 -44 23 0 33 2 35 27 32 18 -2 29 -10 32 -22z"/>
</g>
</svg>
