<svg xmlns="http://www.w3.org/2000/svg" viewBox="0 0 2406.88 1657.07"><defs><style>.cls-1{fill:#fff;}.cls-2{fill:#f1f2f5;}.cls-3{fill:#f0c36a;}.cls-4{fill:#1d2238;}.cls-5{fill:#d2d6e1;}.cls-6{fill:#eb9481;}.cls-7{fill:#4a4e60;}</style></defs><title>Recurso 1</title><g id="Capa_2" data-name="Capa 2"><g id="Layer_1" data-name="Layer 1"><path class="cls-2" d="M2173.14,732.21c-139.94-144.16-331.91-236.7-531.85-256.38S1235,509.48,1069.65,623.58q-5.88,4-11.69,8.2C1127.89,437.35,1045.85,238,803.52,195c-114.95-20.41-246-7.09-352.13,42.65C315.47,301.32,201.63,430.79,153,572.63c-46,134.28-34.53,321.54,97.94,402,29,17.56,60.64,29.83,93.5,38.13-51.68,23.88-98.9,54.32-137.87,97.34-63.36,70-94.22,164.49-103.26,258.43s7.45,190.82,47.88,287h2224C2398.76,1345.38,2404.06,970.1,2173.14,732.21Z"/><path class="cls-3" d="M0,1608c23.32-2.52,47.89-6.14,71.34-5.7-7.26-36.3-9.71-72.3-6.5-109.18,39.59-4.89,80,6.4,111.83,30.51.86-44.19,11.7-90.82,33.28-129.39,43.18,26.09,74.52,68.79,94.46,115.14s31.93,96.2,38.94,146.16H28.47C12.1,1645.13,2.84,1627.18,0,1608Z"/><path class="cls-4" d="M176.67,1523.62c.74,5.21,1.8,10.35,3.05,15.44s2.7,10.11,4.32,15.08A192.87,192.87,0,0,0,196.19,1583c2.4,4.63,5.05,9.12,7.85,13.52s5.85,8.63,9,12.76a182,182,0,0,0,21.49,22.87,129.67,129.67,0,0,1-23.16-21.51l-2.53-3.07c-.85-1-1.6-2.1-2.41-3.15-1.63-2.09-3.1-4.3-4.62-6.47q-4.36-6.64-8.1-13.67c-2.42-4.72-4.65-9.53-6.63-14.44a157.25,157.25,0,0,1-5.13-15,151.53,151.53,0,0,1-3.59-15.44A109.26,109.26,0,0,1,176.67,1523.62Z"/><path class="cls-4" d="M71.34,1602.29a140.39,140.39,0,0,0,7.21,13.57,99.3,99.3,0,0,0,8.78,12.39,67.45,67.45,0,0,0,5.11,5.57,64,64,0,0,0,5.67,5,61.47,61.47,0,0,0,13.11,7.78,39.92,39.92,0,0,1-14.36-6A54.09,54.09,0,0,1,85.21,1630a67.95,67.95,0,0,1-8.54-13.12A62,62,0,0,1,71.34,1602.29Z"/><path class="cls-3" d="M1260.25,1655.33c-10-72.23,19.88-145.75,66.55-201.77s108.87-96.82,172.31-132.78c16.12,67.09,8.11,140.86-23.16,202.35,9.94-20.32,29.82-34.4,51.07-42.18s44.07-10,66.6-12.16c14.8,42,7.69,91.79-22.24,124.82,38.65-11.3,81.76-13.47,121.16-5.2,3.63,22.1,3,44.9-2.87,66.51Z"/><path class="cls-4" d="M1476,1523.13a158.44,158.44,0,0,1-7.94,20.65,218.43,218.43,0,0,1-10.27,19.66c-3.71,6.4-7.81,12.58-12.12,18.6s-9,11.78-13.85,17.4-10.12,10.85-15.52,15.94c-2.79,2.44-5.5,5-8.39,7.31-1.44,1.17-2.83,2.39-4.3,3.52l-4.43,3.36c-1.46,1.14-3,2.16-4.52,3.24s-3,2.17-4.58,3.13c-3.13,2-6.22,4-9.46,5.81a176.33,176.33,0,0,1-19.82,9.82,277.29,277.29,0,0,0,36.17-24.84q8.46-6.95,16.33-14.52c5.21-5.09,10.26-10.33,15.07-15.81s9.4-11.12,13.8-16.94,8.56-11.8,12.58-17.9,7.77-12.38,11.31-18.79S1472.93,1529.85,1476,1523.13Z"/><path class="cls-4" d="M1571.38,1593.61a107.08,107.08,0,0,1-14.19,16.68,148.11,148.11,0,0,1-16.72,14.22l-2.22,1.62-2.26,1.56c-1.53,1-3,2.06-4.58,3-3.14,1.89-6.23,3.85-9.52,5.48a115.74,115.74,0,0,1-20.17,8.55c6.16-4,12.36-7.61,18.34-11.64,3-1.95,6-4,8.94-6,1.47-1,2.92-2.08,4.38-3.12l2.21-1.54,2.15-1.62c5.81-4.22,11.46-8.65,17.06-13.17S1565.9,1598.43,1571.38,1593.61Z"/><rect class="cls-4" x="302.11" y="971.1" width="1019.21" height="304.34"/><rect class="cls-1" x="361.97" y="412.97" width="901.12" height="901.12"/><path class="cls-5" d="M1264.09,1315.1H361V412h903.12Zm-901.12-2h899.12V414H363Z"/><path class="cls-5" d="M1360.84,1631a39.76,39.76,0,0,0,3.05-15.31V1011c0-31.6-35.06-50.61-61.54-33.37L922.67,1224.82l-110.14-102.1-110.14,102.1L322.72,977.61c-26.49-17.24-61.54,1.77-61.54,33.37v604.73a39.57,39.57,0,0,0,3.05,15.31l1.32,2.83A39.81,39.81,0,0,0,301,1655.53H1324.07a39.81,39.81,0,0,0,35.45-21.68Z"/><path class="cls-4" d="M261.18,1621.08q67.92-63.39,136.37-126.21L466,1432l68.55-62.71q68.49-62.74,137.33-125.14l137.68-124.78,3-2.72,3,2.72,137.68,124.77,68.71,62.53,68.63,62.61L1159.1,1432l68.43,62.85q68.29,63,136.36,126.22-69.93-61.18-139.32-123l-69.41-61.74-69.3-61.88-69.2-62-69.14-62.06-138-124.41h6l-138,124.4q-69.16,62-138.34,124l-69.29,61.88-69.42,61.75Q331,1559.73,261.18,1621.08Z"/><path class="cls-5" d="M449.17,709.41c60.8-1.93,121.6-2.93,182.4-3.62l22.8-.27,22.79-.18,45.6-.33,91.2-.25,91.2.24,45.6.33,22.8.17,22.8.28c60.8.68,121.6,1.69,182.39,3.63-60.79,1.94-121.59,3-182.39,3.63l-22.8.27-22.8.18-45.6.32-91.2.25-91.2-.26-45.6-.33-22.79-.17-22.8-.27C570.77,712.34,510,711.33,449.17,709.41Z"/><path class="cls-5" d="M449.17,786.47c60.8-1.92,121.6-2.93,182.4-3.62l22.8-.27,22.79-.18,45.6-.32,91.2-.26,91.2.25,45.6.32,22.8.18,22.8.27c60.8.68,121.6,1.69,182.39,3.63-60.79,1.94-121.59,2.95-182.39,3.63l-22.8.27-22.8.18-45.6.33-91.2.24-91.2-.26-45.6-.32-22.79-.18-22.8-.27C570.77,789.4,510,788.4,449.17,786.47Z"/><path class="cls-5" d="M449.17,863.53c60.8-1.92,121.6-2.93,182.4-3.61l22.8-.27,22.79-.18,45.6-.33,91.2-.26,91.2.25,45.6.33,22.8.17,22.8.27c60.8.69,121.6,1.7,182.39,3.63-60.79,1.94-121.59,3-182.39,3.64l-22.8.27-22.8.17-45.6.33-91.2.24-91.2-.25-45.6-.33-22.79-.18-22.8-.27C570.77,866.47,510,865.46,449.17,863.53Z"/><path class="cls-5" d="M449.17,940.6c60.8-1.93,121.6-2.94,182.4-3.62l22.8-.27,22.79-.18,45.6-.33L814,936l91.2.24,45.6.33,22.8.17,22.8.28c60.8.68,121.6,1.69,182.39,3.63-60.79,1.93-121.59,2.95-182.39,3.63l-22.8.27-22.8.17-45.6.33-91.2.25-91.2-.26-45.6-.33-22.79-.17-22.8-.28C570.77,943.53,510,942.52,449.17,940.6Z"/><path class="cls-5" d="M449.17,1017.66c60.8-1.92,121.6-2.93,182.4-3.62l22.8-.27,22.79-.18,45.6-.32L814,1013l91.2.24,45.6.33,22.8.18,22.8.27c60.8.68,121.6,1.69,182.39,3.63-60.79,1.94-121.59,3-182.39,3.63l-22.8.27-22.8.18-45.6.33-91.2.24-91.2-.26-45.6-.32-22.79-.18-22.8-.27C570.77,1020.59,510,1019.59,449.17,1017.66Z"/><path class="cls-4" d="M323,977.22l46.25,29,46.21,29,92.2,58.37,23.08,14.54,23.12,14.48q23.1,14.52,45.74,29.73l22.57,15.35c7.47,5.19,15,10.3,22.4,15.58,14.89,10.46,29.68,21.08,44.19,32.12l-.51.78c-16-8.8-31.66-18-47.25-27.41-7.83-4.65-15.55-9.46-23.32-14.19l-23.16-14.42q-23.07-14.55-45.69-29.81L526.2,1115l-22.64-15.22-90.67-60.71-45.24-30.51L322.46,978Z"/><path class="cls-4" d="M957.75,1202c27.67-20.31,55.83-39.85,84.18-59.12s56.87-38.25,85.58-57,57.59-37.16,86.71-55.24,58.35-36,88.13-53.05c-27.66,20.33-55.83,39.87-84.17,59.14s-56.88,38.25-85.59,57-57.59,37.15-86.71,55.22S987.52,1184.9,957.75,1202Z"/><path class="cls-4" d="M507.31,623.14a18.56,18.56,0,0,1-17.18,9.49q-8.58,0-13.14-4.89t-4.54-14.1q0-13.15,7.79-22.32t18.82-9.15a16.65,16.65,0,0,1,8.42,2,14.8,14.8,0,0,1,5.6,6.07l3.11-6.05h8.7l-8.37,33.12c0,.19-.07.42-.11.68a13.53,13.53,0,0,0-.34,2.09,4.35,4.35,0,0,0,1.5,3.45,5.82,5.82,0,0,0,3.93,1.3,12.82,12.82,0,0,0,6.07-1.73,22.71,22.71,0,0,0,6-4.77,29.5,29.5,0,0,0,6.21-10,34.54,34.54,0,0,0,2.15-12.18q0-14.3-10.57-23.23t-27.63-8.93a57.15,57.15,0,0,0-14.47,1.75A41.29,41.29,0,0,0,477.08,571a44.48,44.48,0,0,0-15.77,16.44,45.55,45.55,0,0,0-5.54,22.32q0,17.64,11.84,28.2t31.57,10.57a61.1,61.1,0,0,0,18.28-2.77,59.92,59.92,0,0,0,16.47-8l3.79,5.59a61.75,61.75,0,0,1-38.09,12.83,68.38,68.38,0,0,1-19.84-2.71,49,49,0,0,1-15.88-8,43.23,43.23,0,0,1-13.08-15.57,45.65,45.65,0,0,1-4.32-20.2,53.22,53.22,0,0,1,2.94-17.72,50.87,50.87,0,0,1,8.64-15.4,54.69,54.69,0,0,1,20-15.37,62.57,62.57,0,0,1,26-5.25,60.81,60.81,0,0,1,17.8,2.57,44.77,44.77,0,0,1,14.41,7.2A38.39,38.39,0,0,1,547.44,579a37.9,37.9,0,0,1,3.73,17A40,40,0,0,1,547.49,613,37.11,37.11,0,0,1,537,626.42a28.91,28.91,0,0,1-8.48,4.71,28.2,28.2,0,0,1-9.49,1.61c-4,0-7-.76-8.87-2.28s-2.89-3.89-2.89-7.1Zm3.34-24a12.83,12.83,0,0,0-3.48-7.35,9.54,9.54,0,0,0-6.92-2.6q-7.19,0-12.29,7.26T482.84,614c0,3.69.86,6.54,2.58,8.53a9,9,0,0,0,7.26,3,13.44,13.44,0,0,0,9.24-3.76,18.85,18.85,0,0,0,5.62-9.75Z"/><rect class="cls-2" x="586.44" y="560.69" width="590.48" height="90.65" rx="45.32"/><path class="cls-6" d="M1905.51,355.35l-3.34,49.16-20.8,305.71h0c-65-5.34-126.48-6.21-94.51-130.89l55-220Z"/><path class="cls-4" d="M1894.21,354.21,1890,362.9c-5.63,11.6-19,18.15-31.68,15.93a7.84,7.84,0,0,1-1.42-.38l-9.32-3.32,8.3-40.85Z"/><path class="cls-3" d="M1904.47,1565.87l-110.87,49.18a44.73,44.73,0,0,0-26.58,42h0l241.73-2.06-13.44-89.92Z"/><path class="cls-4" d="M2008.61,1639c-19.9,1.28-39.81,2-59.72,2.59-10,.33-19.91.47-29.87.7l-29.87.4-29.87.12c-10-.07-19.91,0-29.87-.19-19.92-.23-39.84-.64-59.76-1.58,19.9-1.29,39.81-2,59.72-2.6,10-.34,19.91-.47,29.87-.7l29.87-.4,29.87-.1c10,.06,19.92,0,29.88.19C1968.77,1637.62,1988.69,1638,2008.61,1639Z"/><circle class="cls-4" cx="1957.34" cy="1603.59" r="21.95" transform="translate(-403.64 2513.79) rotate(-60.41)"/><path class="cls-4" d="M1808.54,1606.2a14.71,14.71,0,0,1,8.2-.83,19.43,19.43,0,0,1,7.32,2.85,18.51,18.51,0,0,1,5.64,5.74,12.78,12.78,0,0,1,2,8.18l-.46.27a29.24,29.24,0,0,0-2.12-2.82c-.38-.44-.73-.91-1.14-1.33l-1.23-1.25a36.19,36.19,0,0,0-5.56-4.3,48.6,48.6,0,0,0-6.16-3.42c-1.07-.49-2.16-1-3.26-1.37s-2.2-.86-3.32-1.2Z"/><path class="cls-4" d="M1836.83,1593.91a14.75,14.75,0,0,1,8.21-.83,19.43,19.43,0,0,1,7.32,2.85,18.51,18.51,0,0,1,5.64,5.74,12.78,12.78,0,0,1,2,8.18l-.46.27a31,31,0,0,0-2.12-2.82c-.39-.44-.73-.91-1.14-1.33l-1.24-1.25a35.64,35.64,0,0,0-5.55-4.3,48.6,48.6,0,0,0-6.16-3.42c-1.07-.49-2.16-1-3.26-1.37s-2.21-.86-3.32-1.2Z"/><path class="cls-4" d="M1863,1582.75a14.84,14.84,0,0,1,8.21-.83,19.45,19.45,0,0,1,7.32,2.86,18.37,18.37,0,0,1,5.64,5.73,12.81,12.81,0,0,1,2,8.18l-.46.27a29.52,29.52,0,0,0-2.12-2.81c-.39-.44-.73-.92-1.14-1.34l-1.24-1.25a35.58,35.58,0,0,0-5.55-4.29,47.45,47.45,0,0,0-6.16-3.43c-1.07-.49-2.16-.95-3.26-1.37s-2.21-.86-3.32-1.2Z"/><polygon class="cls-4" points="1869.88 824.56 1866.03 1565.21 2015.26 1565.21 2051.43 813.26 1869.88 824.56"/><polygon class="cls-4" points="2246.14 1488.99 2132.82 1134.86 2093.67 783.07 1916.19 822.96 1970.1 1170.92 2106.36 1541.25 2246.14 1488.99"/><path class="cls-4" d="M1839.84,266.62s-25.75-27.85-3.5-64.4S1923,169,1930.28,186.41Z"/><rect class="cls-6" x="1839.84" y="193.16" width="146.93" height="173.17" rx="73.46"/><rect class="cls-6" x="1918.72" y="266.38" width="80.02" height="140.39" transform="translate(-28.58 314.21) rotate(-9.11)"/><path class="cls-4" d="M1887.61,260a52.49,52.49,0,0,1,1.38,5.77c.21,1,.34,1.93.49,2.89s.31,1.92.4,2.88l.32,2.89c.11,1,.15,1.92.22,2.89l.19,2.88.1,2.89.12,3.27-3.41,0c-1.23,0-2.45,0-3.68,0h-1.5a5.12,5.12,0,0,0-.85.17,3.8,3.8,0,0,0-1.5,1,3.56,3.56,0,0,0-.8,1.77,3.63,3.63,0,0,0,.24,2.14,6.94,6.94,0,0,0,.59,1.05,4.93,4.93,0,0,0,.93.89,6.6,6.6,0,0,0,1.21.65,15,15,0,0,0,1.68.4c1.23.28,2.45.57,3.68,1h0a.18.18,0,0,1,.12.23.17.17,0,0,1-.17.13l-3.68,0c-.61,0-1.21,0-1.86,0a7,7,0,0,1-1.86-.46,6.58,6.58,0,0,1,0-12.14,7.14,7.14,0,0,1,1.88-.49c.66-.06,1.26,0,1.87-.05h3.68l-.35.36,0-11.55c0-3.84.06-7.69.12-11.54a.18.18,0,0,1,.18-.18.18.18,0,0,1,.17.13Z"/><path class="cls-4" d="M1923.56,250.14c-.54,1.88-5.25,2.18-10.53.67s-9.11-4.25-8.58-6.13,5.26-2.18,10.53-.67S1924.1,248.26,1923.56,250.14Z"/><path class="cls-4" d="M1876.25,243.38c.46,1.9-3.49,4.49-8.83,5.78s-10,.8-10.49-1.1,3.5-4.49,8.83-5.78S1875.79,241.48,1876.25,243.38Z"/><path class="cls-4" d="M1913.09,267.24a4.51,4.51,0,1,1-4.51-4.51A4.51,4.51,0,0,1,1913.09,267.24Z"/><path class="cls-4" d="M1873.84,267.24a4.51,4.51,0,1,1-4.51-4.51A4.51,4.51,0,0,1,1873.84,267.24Z"/><path class="cls-4" d="M1922.82,365.7s26-4.18,36.91-15.17c0,0-3.54,20.89-34.48,30.34Z"/><path class="cls-4" d="M1897,195s21.74,66.76,80.91,77L2002.52,260S2009.18,143.82,1897,195Z"/><ellipse class="cls-6" cx="1992.5" cy="271.95" rx="14.63" ry="18.1"/><path class="cls-4" d="M1983.8,266.83a8.12,8.12,0,0,1,2.38-5,9.35,9.35,0,0,1,2.57-1.73,8.5,8.5,0,0,1,3.21-.67,9.56,9.56,0,0,1,6.26,2.18,12.48,12.48,0,0,1,2.23,2.37,14.1,14.1,0,0,1,1.48,2.79,15.15,15.15,0,0,1,.78,3c.06.51.1,1,.12,1.52,0,.26,0,.51,0,.77s0,.53,0,.88a6.15,6.15,0,0,1-.76,2.43,4.55,4.55,0,0,1-1.19,1.35,4.42,4.42,0,0,1-1.58.74,5.26,5.26,0,0,1-2.37,0,9.66,9.66,0,0,1-1.57-.51,24.16,24.16,0,0,1-4.47-2.62,26.85,26.85,0,0,0-4.07-2.61l-.09,0a.19.19,0,0,1-.08-.24.17.17,0,0,1,.17-.09c3.38.12,6.27,1.94,9.33,2.78a4.39,4.39,0,0,0,2.22.17c.66-.17.94-.86,1-1.62a11.92,11.92,0,0,0-.8-4.61,9.85,9.85,0,0,0-2.6-3.87,7.27,7.27,0,0,0-4.17-1.88,7,7,0,0,0-4.44,1.15,9.27,9.27,0,0,0-3.15,3.48.17.17,0,0,1-.24.07.17.17,0,0,1-.09-.17Z"/><path class="cls-4" d="M1902.7,195.93s-18.26,17.48-10.58,44.13c0,0-21.06-31.59,2.83-49.82Z"/><path class="cls-3" d="M2009.35,387.38c37.53,161,77.49,317.65,112.09,444.86-86.4,52.94-225.29,38.39-279.62,21.86-1.5-.46-8.53-112.13-.69-208.87,7.87-97.21,30.2-201,89.14-240.88C1956.66,398.88,1983,393.07,2009.35,387.38Z"/><path class="cls-7" d="M2026.66,1325.1c-5.24-12.66-10.22-25.41-15.31-38.11s-9.91-25.52-14.87-38.28l-7.4-19.15-7.21-19.22-14.38-38.46-.07-.17-.05-.23c-3.51-16.39-6.7-32.85-10-49.3l-9.75-49.34-9.25-49.45c-1.53-8.24-2.93-16.51-4.41-24.77l-2.18-12.38-2.08-12.41.31-.07,40.36,197.1v0L2027,1325Z"/><path class="cls-3" d="M2145.12,1520.4l-92.67,78.26a44.72,44.72,0,0,0-13.75,47.78h0l231.48-69.66-38.07-82.56Z"/><path class="cls-4" d="M2265.56,1561.42c-18.75,6.8-37.65,13.09-56.61,19.21-9.46,3.1-19,6-28.47,9l-28.57,8.75-28.64,8.47c-9.58,2.73-19.13,5.55-28.73,8.18-19.19,5.37-38.42,10.55-57.81,15.22,18.74-6.81,37.65-13.1,56.6-19.22,9.47-3.1,19-6,28.48-9l28.56-8.74,28.65-8.47c9.58-2.73,19.13-5.55,28.73-8.18C2226.94,1571.28,2246.17,1566.1,2265.56,1561.42Z"/><circle class="cls-4" cx="2206.43" cy="1541.81" r="21.95" transform="translate(-469.17 1836.19) rotate(-41.22)"/><path class="cls-4" d="M2064.31,1586a14.9,14.9,0,0,1,7.65-3.09,19.53,19.53,0,0,1,7.82.69,18.4,18.4,0,0,1,7,3.93,12.82,12.82,0,0,1,4.17,7.3l-.37.39a28.61,28.61,0,0,0-2.81-2.11c-.5-.31-1-.68-1.47-1l-1.54-.85a35.59,35.59,0,0,0-6.53-2.57,49,49,0,0,0-6.88-1.57c-1.16-.17-2.33-.31-3.51-.4s-2.36-.2-3.53-.22Z"/><path class="cls-4" d="M2088,1566.25a14.79,14.79,0,0,1,7.64-3.09,19.4,19.4,0,0,1,7.83.69,18.48,18.48,0,0,1,7,3.93,12.82,12.82,0,0,1,4.17,7.3l-.37.39a28.74,28.74,0,0,0-2.82-2.11c-.49-.31-1-.68-1.47-1l-1.53-.85A35,35,0,0,0,2102,1569a47.16,47.16,0,0,0-6.87-1.57c-1.17-.17-2.34-.31-3.51-.4s-2.36-.2-3.53-.22Z"/><path class="cls-4" d="M2110.06,1548.21a14.7,14.7,0,0,1,7.64-3.09,19.4,19.4,0,0,1,7.83.69,18.45,18.45,0,0,1,7,3.92,12.82,12.82,0,0,1,4.17,7.31l-.37.38a30.32,30.32,0,0,0-2.82-2.1c-.49-.32-1-.68-1.47-1l-1.53-.86a35.93,35.93,0,0,0-6.54-2.56,47.16,47.16,0,0,0-6.87-1.57c-1.17-.17-2.34-.31-3.52-.4s-2.35-.21-3.52-.23Z"/><path class="cls-1" d="M1895.43,316.11h0c-4.33,1.26-20.9,2.27-22.15-2.06h0L1901,306h0C1902.24,310.33,1900.76,314.88,1895.43,316.11Z"/><path class="cls-3" d="M2043,429.13l30,188.21-135.51,9.14s-34.78-235.77,71.87-239.1h0A53.93,53.93,0,0,1,2043,429.13Z"/><rect class="cls-5" x="1673.98" y="398.88" width="112.74" height="817.9" transform="translate(-167.29 594.16) rotate(-18.6)"/><rect class="cls-1" x="1814.54" y="1193.75" width="112.74" height="63.41" transform="translate(-293.17 660.81) rotate(-18.6)"/><path class="cls-5" d="M1900.52,1313.43h0a56.38,56.38,0,0,1-71.41-35.44l-1.51-4.5,106.84-36L1936,1242A56.38,56.38,0,0,1,1900.52,1313.43Z"/><path class="cls-4" d="M1872.55,1191.45c-6-15.42-11.69-31-17.44-46.45l-8.61-23.26-8.43-23.32-4.22-11.66-4.14-11.69-8.28-23.37q-4.17-11.67-8.2-23.4l-8.14-23.42-1-2.93,2.42-2.14a25.53,25.53,0,0,0,8.23-14.85,25.16,25.16,0,0,0,0-8.57c-.17-.7-.28-1.41-.48-2.1a20.59,20.59,0,0,0-.66-2.06l-.8-2-1-1.91A25,25,0,0,0,1765.3,984l.36,2.12.57,2.08c.17.71.49,1.36.72,2s.6,1.3.89,2A25,25,0,0,0,1773,999a25.55,25.55,0,0,0,15.55,6.86l3.2.25,1,2.94,7.68,23.57,3.85,11.79,3.77,11.81,7.53,23.62,3.77,11.81,3.69,11.84,7.39,23.67,7.21,23.73c4.79,15.83,9.64,31.64,14.2,47.54l-.53.18-63.46-187.91.43.32A30.55,30.55,0,0,1,1763,994.65c-.36-.8-.77-1.57-1.09-2.39s-.68-1.61-.89-2.46-.48-1.68-.7-2.53l-.45-2.58a30.43,30.43,0,0,1,56.64-19.07l1.2,2.34c.34.8.64,1.62,1,2.43s.52,1.67.79,2.5.37,1.71.56,2.56a30.51,30.51,0,0,1-10.19,28.3l.15-.52,63.07,188Z"/><path class="cls-4" d="M1545.91,437.4l-1-11.71-.78-11.72-1.54-23.43-1.25-23.45c-.42-7.81-.7-15.63-1.06-23.44l-.51-11.72-.41-11.73-.8-23.45-1.17-46.91-.41-16.4,9.58,13.31c9.14,12.7,18.33,25.35,27.42,38.08L1587.57,304l6.76,9.59,6.69,9.65c4.44,6.44,8.94,12.83,13.33,19.31L1627.52,362l13,19.59,6.47,9.81,6.33,9.9-.46.33L1542.05,250.07l1-.34,3.41,187.66Z"/><path class="cls-4" d="M1659.57,422l-103.34,34.79a10.81,10.81,0,0,1-13.69-6.8h0a10.8,10.8,0,0,1,6.79-13.69l103.35-34.78a10.81,10.81,0,0,1,13.69,6.79h0A10.81,10.81,0,0,1,1659.57,422Z"/><path class="cls-4" d="M1926.53,1184.68h0a10.8,10.8,0,0,0-13.69-6.79l-103.34,34.78a10.81,10.81,0,0,0-6.8,13.69h0a10.8,10.8,0,0,0,10.79,7.34,10.8,10.8,0,0,0,6.29,19.93A10.8,10.8,0,0,0,1829,1273l103.34-34.79a10.8,10.8,0,0,0-4-21,10.8,10.8,0,0,0-6.29-19.93A10.81,10.81,0,0,0,1926.53,1184.68Z"/><path class="cls-6" d="M1870.79,322.51l-15.43-3.73a9.63,9.63,0,0,0-11.63,7.11h0a9.63,9.63,0,0,0,4.37,10.5l-.76-.18a9.62,9.62,0,0,0-11.62,7.1h0a9.61,9.61,0,0,0,6.5,11.45,9.64,9.64,0,0,0-.76,18.89l15.43,3.73a9.64,9.64,0,0,0,8-17.1l1.1.26a9.63,9.63,0,1,0,4.52-18.73l-1.31-.32a9.64,9.64,0,0,0,8.68-7.35h0A9.64,9.64,0,0,0,1870.79,322.51Z"/><path class="cls-4" d="M1870.79,322.51a9.71,9.71,0,0,1,3.59,1.33,10,10,0,0,1,4.46,10.53l0-.23,0,.23a10.69,10.69,0,0,1-3.29,5.81,10.93,10.93,0,0,1-6.24,2.74l.24-2.83a13.68,13.68,0,0,1,4.28,1.39,10.87,10.87,0,0,1,3.56,3.12,11.14,11.14,0,0,1,2,9.12,11.38,11.38,0,0,1-5.66,7.5,11.21,11.21,0,0,1-4.62,1.34c-.41,0-.81,0-1.22,0l-1.2-.12-1.17-.23-1-.25,1.46-3.11a11.2,11.2,0,0,1,4.15,11.63,11,11,0,0,1-8.86,8.22,10,10,0,0,1-3.13,0,10.28,10.28,0,0,1-1.54-.32l-1.32-.44c-1.77-.58-3.53-1.17-5.28-1.79-3.52-1.21-7-2.46-10.5-3.79,3.65.7,7.28,1.48,10.9,2.3,1.81.39,3.61.82,5.42,1.25l1.35.32a8,8,0,0,0,1.2.13,8.46,8.46,0,0,0,2.41-.21,8.35,8.35,0,0,0,6.24-6.42,8.12,8.12,0,0,0-3.14-8.11l-7-5.1,8.48,2,1,.24.84.15.83.07.83,0a8.21,8.21,0,0,0,3.17-.95,7.85,7.85,0,0,0,4-5.12,8.18,8.18,0,0,0-1.2-6.44,7.72,7.72,0,0,0-2.46-2.33,12.09,12.09,0,0,0-3.42-1.28l-9.62-2.53,9.86-.3a8.34,8.34,0,0,0,4.84-1.78,8.52,8.52,0,0,0,3-4.37l0,.23,0-.23a9,9,0,0,0-.68-6.76A9.6,9.6,0,0,0,1870.79,322.51Z"/><path class="cls-4" d="M1889,362.22c2.82.57,5.61,1,8.4,1.47s5.6.81,8.41,1.06,5.62.5,8.44.63,5.66.18,8.54.32a47.29,47.29,0,0,1-8.54,1.08,59,59,0,0,1-8.62-.24,60.9,60.9,0,0,1-8.5-1.47A40.22,40.22,0,0,1,1889,362.22Z"/><path class="cls-1" d="M1927.21,1239.41c3.2-1.26,6.43-2.45,9.65-3.66a10.47,10.47,0,0,0,6.34-7,10.14,10.14,0,0,0-1.9-9,9.94,9.94,0,0,0-8.29-3.65l-3.86.27,3.27-2.12a10,10,0,0,0,4-4.93,9.83,9.83,0,0,0-3.6-11.37,9.85,9.85,0,0,0-6.06-1.77l-4,.17,3.37-2a10,10,0,0,0,3.86-12.52,10.22,10.22,0,0,0-7.34-5.86,10.82,10.82,0,0,0-4.93.2c-3.33,1-6.65,2-10,2.94,3.24-1.28,6.49-2.49,9.75-3.7a11.25,11.25,0,0,1,5.37-.56,11.94,11.94,0,0,1,5.06,2.06,11.57,11.57,0,0,1,4.71,9.68,11.83,11.83,0,0,1-5.41,9.48l-.58-1.87a11.79,11.79,0,0,1,6.87,21.79l-.59-1.85a11.77,11.77,0,0,1,9.79,4.56,11.45,11.45,0,0,1-1,15.1,11.4,11.4,0,0,1-4.59,2.73C1933.82,1237.49,1930.53,1238.48,1927.21,1239.41Z"/><path class="cls-4" d="M1778.14,644.24Q1786,643,1794,642c5.29-.7,10.57-1.41,15.85-2.05s10.58-1.31,15.87-1.92,10.58-1.23,15.87-1.79l-1.71,1.85c.17-11.27,1.1-22.39,2.27-33.53s2.87-22.2,5-33.19,4.6-21.9,7.62-32.67c.74-2.69,1.55-5.37,2.34-8s1.67-5.33,2.57-8c1.75-5.31,3.73-10.54,5.78-15.72-3,10.74-5.76,21.52-8.18,32.37q-1.79,8.15-3.39,16.32c-1,5.46-2,10.92-2.93,16.4s-1.7,11-2.49,16.46-1.43,11-2.05,16.52-1.19,11-1.64,16.56-.88,11.08-1.08,16.57l-.06,1.7-1.65.15q-8,.69-15.93,1.27t-15.93,1.16c-5.32.38-10.64.7-16,1S1783.46,644,1778.14,644.24Z"/><path class="cls-6" d="M1670.47,707.06a8.19,8.19,0,0,0,8.56,6.88c20.49-1.22,76.9-4.48,82.42-3.91l197.8,20.36c128.22,11.15,119-49.63,113.66-114.64h0l-305,29.48a19.35,19.35,0,0,1-20.19-13.09l-6.35-18.86a11.67,11.67,0,0,0-14.28-7.64l-.16.05a5.49,5.49,0,0,0-3.59,6.27l5.13,26.78-58.32-10.4c-6.61-1.17-13.74.42-15.19,7-1.48,6.71.83,10.89,9.21,14.05l39.65,12-48-1.2c-6.72-.17-15,1.3-15.65,9.36-.53,6.87,2.8,11.91,10.27,13.2l59,9.21-32.32,5.8a8.17,8.17,0,0,0-6.63,9.33Z"/><path class="cls-4" d="M1937.48,626.48c7.09.87,14.07,2.16,21,3.61s13.84,3.06,20.71,4.82,13.69,3.67,20.46,5.79,13.52,4.33,20.14,7c-7.09-.86-14.08-2.15-21-3.6s-13.84-3.06-20.71-4.83-13.68-3.67-20.46-5.79S1944.11,629.15,1937.48,626.48Z"/><path class="cls-4" d="M1689.38,632c4.46.36,8.88.93,13.28,1.57s8.79,1.38,13.17,2.15,8.74,1.65,13.09,2.62,8.68,2,13,3.2c-4.46-.36-8.87-.92-13.28-1.56s-8.79-1.38-13.17-2.16-8.74-1.65-13.09-2.62S1693.68,633.23,1689.38,632Z"/><path class="cls-4" d="M1679.41,660.75c2.95-.24,5.89-.27,8.82-.23s5.85.19,8.78.37,5.83.47,8.74.84,5.82.79,8.71,1.44c-3,.24-5.89.27-8.82.22s-5.86-.19-8.78-.37-5.84-.47-8.75-.84S1682.3,661.39,1679.41,660.75Z"/><path class="cls-4" d="M1682.94,687.8a86,86,0,0,1,8.66.29c2.88.2,5.74.53,8.59.88s5.7.81,8.53,1.35a85.37,85.37,0,0,1,8.45,1.95c-2.91.06-5.79-.08-8.66-.3s-5.74-.53-8.59-.88-5.7-.81-8.53-1.35S1685.73,688.61,1682.94,687.8Z"/><path class="cls-4" d="M2073,617.69q-16.85,2.5-33.72,4.54l-16.88,2-16.9,1.84-8.44.92-8.45.83-16.91,1.65-8.45.81-8.46.72-16.92,1.45-5.5.47-.85-5.66c-.52-3.55-1-6.93-1.4-10.4s-.72-6.89-1-10.34-.59-6.9-.86-10.35-.51-6.9-.64-10.36q-.45-10.37-.59-20.75c0-1.73-.06-3.46,0-5.19l.07-5.19c.08-3.46.16-6.92.29-10.38s.27-6.92.45-10.37.51-6.91.82-10.36.65-6.9,1-10.34.86-6.87,1.37-10.3a264,264,0,0,1,8.78-40.54l0,0a.35.35,0,0,1,.44-.24.36.36,0,0,1,.25.41c-2.35,13.49-4,27.11-5.07,40.77q-.82,10.24-1.2,20.52c-.28,6.84-.41,13.69-.45,20.54-.09,13.7.29,27.41,1,41.09s1.71,27.36,3.34,40.95l-.65-.53L2073,617a.36.36,0,0,1,.39.33.37.37,0,0,1-.31.38Z"/><ellipse class="cls-2" cx="2250.35" cy="140.51" rx="156.53" ry="140.51"/><circle class="cls-2" cx="2090.94" cy="260.05" r="35.29"/><circle class="cls-2" cx="2041.67" cy="304.91" r="17.64" transform="translate(382.39 1532.99) rotate(-45)"/><rect class="cls-4" x="362.97" y="411.97" width="899.12" height="85.93"/><circle class="cls-3" cx="424.2" cy="455.18" r="12.29" transform="translate(-131.38 175.06) rotate(-20.26)"/><circle class="cls-5" cx="473.02" cy="454.94" r="12.29" transform="translate(-52.05 848.65) rotate(-80.75)"/><circle class="cls-5" cx="520.27" cy="454.69" r="12.29" transform="translate(-12.17 895.07) rotate(-80.75)"/></g></g></svg>