<svg xmlns="http://www.w3.org/2000/svg" viewBox="0 0 33.47 6.27"><defs><style>.cls-1{fill:#f9fafc;}</style></defs><g id="Capa_2" data-name="Capa 2"><g id="Capa_1-2" data-name="Capa 1"><path class="cls-1" d="M1.54,6.27A1.74,1.74,0,0,1,.32,6,1.65,1.65,0,0,1,0,4.79V3.49l1.45-.28V5.09H4.28V0H5.72V4.79A1.66,1.66,0,0,1,5.41,6a1.77,1.77,0,0,1-1.22.31Z"/><path class="cls-1" d="M7.24,6.27,10.75,0h1.38l3.56,6.27H14.07L13.32,4.9H9.4L8.68,6.27ZM10,3.77h2.72L11.39,1.22Z"/><path class="cls-1" d="M22.66,1.12H18.78v4h3.88V3.75l1.45,0v1A1.65,1.65,0,0,1,23.79,6a1.77,1.77,0,0,1-1.22.31h-3.7A1.77,1.77,0,0,1,17.65,6a1.66,1.66,0,0,1-.31-1.17V1.48A1.66,1.66,0,0,1,17.65.31,1.77,1.77,0,0,1,18.87,0h3.7a1.77,1.77,0,0,1,1.22.31,1.65,1.65,0,0,1,.32,1.17v.6l-1.39,0Z"/><path class="cls-1" d="M27.08,6.27V0h6.34V1.07h-4.9v1.4h2.86V3.54H28.52V5.09h4.95V6.27Z"/></g></g></svg>